<svg width="131" height="50" viewBox="0 0 131 50" fill="none" xmlns="http://www.w3.org/2000/svg">
<path fill-rule="evenodd" clip-rule="evenodd" d="M41.0394 11.2808C42.6907 13.9166 42.9888 17.2444 42.1418 20.7856H42.1371C44.4934 24.3742 45.3593 28.3089 44.2237 31.9497C43.0455 35.7279 39.918 38.5296 35.7164 40.0892C33.9563 44.1376 31.1789 47.0768 27.6539 48.1197C23.3766 49.3854 18.858 47.5983 15.1248 43.7252C9.54156 44.3747 4.77218 42.8245 2.36856 38.9989C0.461749 35.9649 0.357655 32.0065 1.7298 27.868C0.0311797 24.6824 -0.489289 21.2976 0.49487 18.1357C1.67302 14.3574 4.80057 11.5558 9.00217 9.99612C10.7623 5.94768 13.5397 3.00853 17.0647 1.9656C21.3704 0.690393 25.9221 2.51077 29.6742 6.43595C34.6518 6.17996 38.8392 7.77753 41.0394 11.2808ZM16.5868 35.05H28.0229C29.6648 35.05 30.9943 33.6752 30.9943 31.9828C30.9943 30.2905 29.6648 28.9157 28.0229 28.9157H23.3387L30.2136 21.1744C31.0085 20.2784 31.2167 18.9795 30.7436 17.8654C30.2657 16.7514 29.2011 16.0309 28.0229 16.0309H16.5868C14.945 16.0309 13.6154 17.4056 13.6154 19.098C13.6154 20.7904 14.945 22.1651 16.5868 22.1651H21.271L14.3961 29.9065C13.6012 30.8024 13.393 32.1014 13.8662 33.2154C14.3441 34.3294 15.4087 35.05 16.5868 35.05Z" fill="#6758FF"/>
<path fill-rule="evenodd" clip-rule="evenodd" d="M111.676 11.3424C110.811 11.3424 109.978 11.698 109.363 12.3379V12.3427C108.748 12.9827 108.402 13.8454 108.402 14.7509V37.2354C108.402 39.1174 109.869 40.6438 111.676 40.6438C113.484 40.6438 114.951 39.1174 114.951 37.2354V31.7837H121.669C123.392 31.8548 125.644 31.286 127.527 29.7169C129.595 27.996 131 25.2844 131 21.5631C131 17.8417 129.581 15.1538 127.494 13.4662C125.563 11.9018 123.354 11.4278 121.925 11.3472C121.863 11.3424 121.807 11.3424 121.745 11.3424H111.676ZM121.75 24.9668H114.955V18.1499H121.646C122.204 18.1925 122.942 18.4011 123.477 18.8373C123.884 19.1691 124.456 19.8043 124.456 21.5583C124.456 23.3124 123.87 24.0424 123.444 24.3932C122.876 24.8625 122.185 24.9858 121.93 24.9715C121.868 24.9668 121.811 24.9668 121.75 24.9668Z" fill="#6758FF"/>
<path d="M58.1439 11.5036C56.3222 11.5036 54.846 13.0111 54.846 14.8647C54.846 16.723 56.3222 18.2257 58.1439 18.2257H67.5927L55.4847 34.9978C54.7514 36.017 54.6378 37.3776 55.2009 38.5058C55.7639 39.6388 56.8995 40.3499 58.1439 40.3499H74.1128C75.9344 40.3499 77.4107 38.8472 77.4107 36.9889C77.4107 35.1306 75.9344 33.6278 74.1128 33.6278H64.6639L76.7719 16.8557C77.5053 15.8365 77.6189 14.4759 77.0558 13.3477C76.4928 12.2147 75.3572 11.5036 74.1128 11.5036H58.1439Z" fill="#6758FF"/>
<path d="M84.7493 11.4135C82.9134 11.4135 81.4277 12.94 81.4277 14.822L81.2243 36.8704C81.2243 38.7524 82.71 40.2788 84.5458 40.2788H100.496C102.332 40.2788 103.817 38.7524 103.817 36.8704C103.817 34.9884 102.332 33.4619 100.496 33.4619H87.8673L87.9241 29.2855H99.7246C101.527 29.2855 102.994 27.7448 102.994 25.8438C102.994 23.9429 101.532 22.4022 99.7246 22.4022H88.014L88.0708 18.2257H100.699C102.535 18.2257 104.021 16.6993 104.021 14.8173C104.021 12.9353 102.535 11.4088 100.699 11.4088H84.7493V11.4135Z" fill="#6758FF"/>
</svg>
